<svg width="70" height="70" viewBox="0 0 70 70" fill="none" xmlns="http://www.w3.org/2000/svg">
<path d="M54.1376 19.5124C51.2301 18.8731 48.5999 17.3291 46.6244 15.1021C44.649 12.8751 43.4297 10.0795 43.1417 7.11659V5.83325H33.0792V45.7041C33.0813 47.4732 32.5266 49.1982 31.4938 50.6345C30.4611 52.0709 29.0025 53.146 27.3248 53.7074C25.6471 54.2687 23.8353 54.288 22.146 53.7625C20.4568 53.2369 18.9757 52.1932 17.9126 50.7791C16.9601 49.5274 16.3769 48.0341 16.2289 46.4682C16.0808 44.9024 16.3738 43.3263 17.0748 41.9182C17.7758 40.5102 18.8568 39.3264 20.1955 38.5007C21.5342 37.6749 23.0772 37.2403 24.6501 37.2458C25.5199 37.2408 26.3855 37.3686 27.2167 37.6249V27.4166C26.2494 27.2968 25.2745 27.248 24.3001 27.2708C20.7105 27.3667 17.2269 28.5072 14.2757 30.5528C11.3245 32.5983 9.0339 35.4601 7.68432 38.7876C6.33474 42.1151 5.98479 45.764 6.67731 49.2874C7.36984 52.8108 9.07479 56.0557 11.5834 58.6249C14.1544 61.2388 17.4444 63.0295 21.0354 63.7693C24.6264 64.5092 28.3563 64.1648 31.7511 62.78C35.146 61.3951 38.0525 59.0324 40.1015 55.9919C42.1504 52.9514 43.2493 49.3705 43.2584 45.7041V25.2874C47.3168 28.1864 52.1834 29.7372 57.1709 29.7207V19.8041C56.1912 19.8081 55.2137 19.7104 54.2542 19.5124H54.1376Z" fill="black"/>
</svg>
