<svg width="80" height="80" viewBox="0 0 80 80" fill="none" xmlns="http://www.w3.org/2000/svg">
<path d="M39.9967 27.9233C35.9088 27.9233 31.9884 29.5472 29.0978 32.4378C26.2073 35.3284 24.5834 39.2488 24.5834 43.3367C24.5834 47.4245 26.2073 51.345 29.0978 54.2355C31.9884 57.1261 35.9088 58.75 39.9967 58.75C44.0846 58.75 48.005 57.1261 50.8956 54.2355C53.7861 51.345 55.41 47.4245 55.41 43.3367C55.41 39.2488 53.7861 35.3284 50.8956 32.4378C48.005 29.5472 44.0846 27.9233 39.9967 27.9233ZM39.9967 53.3467C37.341 53.3467 34.7941 52.2917 32.9162 50.4138C31.0383 48.536 29.9834 45.989 29.9834 43.3333C29.9834 40.6776 31.0383 38.1307 32.9162 36.2528C34.7941 34.375 37.341 33.32 39.9967 33.32C42.6524 33.32 45.1993 34.375 47.0772 36.2528C48.9551 38.1307 50.01 40.6776 50.01 43.3333C50.01 45.989 48.9551 48.536 47.0772 50.4138C45.1993 52.2917 42.6524 53.3467 39.9967 53.3467Z" fill="url(#paint0_linear_13_3)"/>
<path d="M56.02 30.9501C58.0045 30.9501 59.6133 29.3413 59.6133 27.3568C59.6133 25.3722 58.0045 23.7634 56.02 23.7634C54.0354 23.7634 52.4266 25.3722 52.4266 27.3568C52.4266 29.3413 54.0354 30.9501 56.02 30.9501Z" fill="url(#paint1_linear_13_3)"/>
<path d="M70.11 23.7034C69.3383 21.7107 68.1591 19.901 66.6478 18.3903C65.1365 16.8795 63.3264 15.701 61.3333 14.9301C59.0011 14.0546 56.5373 13.5812 54.0467 13.5301C50.8367 13.3901 49.82 13.3501 41.68 13.3501C33.54 13.3501 32.4967 13.3501 29.3133 13.5301C26.8246 13.5786 24.3625 14.0521 22.0333 14.9301C20.0398 15.7001 18.2292 16.8783 16.7178 18.3892C15.2064 19.9001 14.0274 21.7102 13.2567 23.7034C12.381 26.0355 11.9087 28.4996 11.86 30.9901C11.7167 34.1968 11.6733 35.2134 11.6733 43.3568C11.6733 51.4968 11.6733 52.5334 11.86 55.7234C11.91 58.2168 12.38 60.6768 13.2567 63.0134C14.0296 65.006 15.2097 66.8154 16.7215 68.326C18.2333 69.8367 20.0436 71.0154 22.0367 71.7868C24.3615 72.6974 26.8246 73.2047 29.32 73.2868C32.53 73.4268 33.5467 73.4701 41.6867 73.4701C49.8267 73.4701 50.87 73.4701 54.0533 73.2868C56.5437 73.2361 59.0074 72.7639 61.34 71.8901C63.3325 71.1174 65.1421 69.9378 66.6532 68.4267C68.1644 66.9155 69.344 65.1059 70.1167 63.1134C70.9933 60.7801 71.4633 58.3201 71.5133 55.8268C71.6567 52.6201 71.7 51.6034 71.7 43.4601C71.7 35.3168 71.7 34.2834 71.5133 31.0934C71.4745 28.5677 70.9998 26.0676 70.11 23.7034ZM66.05 55.4768C66.0285 57.3978 65.6779 59.3009 65.0133 61.1034C64.5128 62.3997 63.7464 63.5768 62.7636 64.559C61.7807 65.5413 60.6032 66.3069 59.3067 66.8068C57.5241 67.4683 55.6412 67.8189 53.74 67.8434C50.5733 67.9901 49.68 68.0268 41.56 68.0268C33.4333 68.0268 32.6033 68.0268 29.3767 67.8434C27.4764 67.8202 25.5944 67.4695 23.8133 66.8068C22.5123 66.31 21.33 65.5457 20.343 64.5633C19.3559 63.5809 18.5861 62.4021 18.0833 61.1034C17.4282 59.3203 17.0777 57.4396 17.0467 55.5401C16.9033 52.3734 16.87 51.4801 16.87 43.3601C16.87 35.2368 16.87 34.4068 17.0467 31.1768C17.0682 29.2568 17.4189 27.3548 18.0833 25.5534C19.1 22.9234 21.1833 20.8534 23.8133 19.8468C25.5953 19.1872 27.4768 18.8366 29.3767 18.8101C32.5467 18.6668 33.4367 18.6268 41.56 18.6268C49.6833 18.6268 50.5167 18.6268 53.74 18.8101C55.6414 18.833 57.5245 19.1837 59.3067 19.8468C60.6031 20.3477 61.7805 21.1141 62.7632 22.0969C63.746 23.0796 64.5124 24.257 65.0133 25.5534C65.6685 27.3366 66.019 29.2173 66.05 31.1168C66.1933 34.2868 66.23 35.1768 66.23 43.3001C66.23 51.4201 66.23 52.2934 66.0867 55.4801H66.05V55.4768Z" fill="url(#paint2_linear_13_3)"/>
<defs>
<linearGradient id="paint0_linear_13_3" x1="39.9967" y1="27.9233" x2="39.9967" y2="58.75" gradientUnits="userSpaceOnUse">
<stop stop-color="#DB00FF"/>
<stop offset="0.461458" stop-color="#E00194" stop-opacity="0.76"/>
<stop offset="1" stop-color="#E8C617"/>
</linearGradient>
<linearGradient id="paint1_linear_13_3" x1="56.02" y1="23.7634" x2="56.02" y2="30.9501" gradientUnits="userSpaceOnUse">
<stop stop-color="#DB00FF"/>
<stop offset="0.461458" stop-color="#E00194" stop-opacity="0.76"/>
<stop offset="1" stop-color="#E8C617"/>
</linearGradient>
<linearGradient id="paint2_linear_13_3" x1="41.6867" y1="13.3501" x2="41.6867" y2="73.4701" gradientUnits="userSpaceOnUse">
<stop stop-color="#DB00FF"/>
<stop offset="0.461458" stop-color="#E00194" stop-opacity="0.76"/>
<stop offset="1" stop-color="#E8C617"/>
</linearGradient>
</defs>
</svg>
