<svg width="500" height="70" viewBox="0 0 500 70" fill="none" xmlns="http://www.w3.org/2000/svg">
<path d="M283.906 62.0156H278.438V38.7188C278.438 35.2188 276.141 31.3906 272.531 31.3906H251.859L256.672 26.6875L256.781 26.5781C258.094 24.7187 258.422 21.5469 256.453 19.5781C255.797 18.9219 254.922 18.5938 253.938 18.5938C252.734 18.5938 251.312 19.1406 250 20.125C248.688 19.1406 247.375 18.5938 246.172 18.5938C245.188 18.5938 244.312 18.9219 243.656 19.5781C241.688 21.5469 241.578 24.7188 243.547 26.7969L248.359 31.5H228.453C224.953 31.3906 221.562 35 221.562 38.7188V62.0156H216.094C215.437 62.0156 215 62.5625 215 63.1094C215 66.7188 217.953 69.6719 221.562 69.6719H278.438C282.047 69.6719 285 66.7188 285 63.1094C285 62.5625 284.562 62.0156 283.906 62.0156ZM245.078 21C245.297 20.7813 245.625 20.5625 246.062 20.5625C246.938 20.5625 248.141 21.2188 249.234 22.0938C249.672 22.5313 250.328 22.5313 250.766 22.0938C251.75 21.1094 253.062 20.5625 253.938 20.5625C254.375 20.5625 254.703 20.6719 254.922 21C256.016 22.0938 255.906 23.9531 255.141 25.1562L250.109 30.0781L245.078 25.1562C243.984 23.9531 243.984 22.0938 245.078 21ZM223.75 53.2656H276.25V55.4531H223.75V53.2656ZM223.75 52.1719V45.7188C224.953 46.8125 226.484 47.4688 228.125 47.4688C230.422 47.4688 232.391 46.2656 233.594 44.4062C234.797 46.2656 236.766 47.4688 239.062 47.4688C241.359 47.4688 243.328 46.2656 244.531 44.4062C245.734 46.2656 247.703 47.4688 250 47.4688C252.297 47.4688 254.266 46.2656 255.469 44.4062C256.672 46.2656 258.641 47.4688 260.938 47.4688C263.234 47.4688 265.203 46.2656 266.406 44.4062C267.609 46.2656 269.578 47.4688 271.875 47.4688C273.516 47.4688 275.047 46.8125 276.25 45.7188V52.1719H223.75ZM223.75 38.7188C223.75 36.2031 226.266 33.5781 228.453 33.5781H272.422C274.609 33.5781 276.141 36.2031 276.141 38.7188V40.5781C276.141 43.0937 274.172 45.1719 271.766 45.1719C269.359 45.1719 267.391 43.0937 267.391 40.5781C267.391 39.9219 266.953 39.4844 266.297 39.4844C265.641 39.4844 265.203 39.9219 265.203 40.5781C265.203 43.0937 263.234 45.1719 260.828 45.1719C258.422 45.1719 256.453 43.0937 256.453 40.5781C256.453 39.9219 256.016 39.4844 255.359 39.4844C254.703 39.4844 254.266 39.9219 254.266 40.5781C254.266 43.0937 252.297 45.1719 249.891 45.1719C247.484 45.1719 245.516 43.0937 245.516 40.5781C245.516 39.9219 245.078 39.4844 244.422 39.4844C243.766 39.4844 243.328 39.9219 243.328 40.5781C243.328 43.0937 241.359 45.1719 238.953 45.1719C236.547 45.1719 234.578 43.0937 234.578 40.5781C234.578 39.9219 234.141 39.4844 233.484 39.4844C232.828 39.4844 232.391 39.9219 232.391 40.5781C232.391 43.0937 230.422 45.1719 228.016 45.1719C225.609 45.1719 223.641 43.0937 223.641 40.5781V38.7188H223.75ZM223.75 56.5469H276.25V62.0156H223.75V56.5469ZM278.438 67.4844H221.562C219.594 67.4844 217.844 66.3906 217.406 64.2031H282.703C282.156 66.3906 280.516 67.4844 278.438 67.4844Z" fill="#FFCDE5"/>
<line x1="321.5" y1="50.5" x2="498.5" y2="50.5" stroke="#FFCDE5" stroke-width="3" stroke-linecap="round"/>
<line x1="1.5" y1="50.5" x2="178.5" y2="50.5" stroke="#FFCDE5" stroke-width="3" stroke-linecap="round"/>
</svg>
